<?xml version="1.0" encoding="UTF-8" standalone="no"?><!DOCTYPE svg PUBLIC "-//W3C//DTD SVG 1.1//EN" "http://www.w3.org/Graphics/SVG/1.1/DTD/svg11.dtd"><svg width="100%" height="100%" viewBox="0 0 280 302" version="1.1" xmlns="http://www.w3.org/2000/svg" xmlns:xlink="http://www.w3.org/1999/xlink" xml:space="preserve" xmlns:serif="http://www.serif.com/" style="fill-rule:evenodd;clip-rule:evenodd;stroke-linecap:round;stroke-linejoin:round;stroke-miterlimit:1.5;"><g id="atom_shell"><g id="atom3_wing"><path id="electron_path3" d="M245.226,160.112c-16.079,18.961 -38.214,37.413 -64.711,52.711c-69.306,40.013 -142.377,43.396 -163.074,7.548c-9.125,-15.806 -6.555,-36.617 5.112,-58.376m140.572,-103.94c48.358,-13.988 90.535,-8.541 105.464,17.316c9.385,16.255 6.399,37.804 -6.13,60.234" style="fill-opacity:0;stroke:#000;stroke-width:11.2px;"/><path id="electron_2" d="M31.044,177.733c-4.27,7.197 -13.743,9.667 -21.139,5.512c-7.397,-4.156 -9.935,-13.373 -5.665,-20.57c4.271,-7.198 13.743,-9.667 21.14,-5.512c7.396,4.155 9.934,13.373 5.664,20.57Z" style="stroke:#fff;stroke-width:0.83px;"/></g><g id="atom2_wing"><path id="electron_path2" d="M48.841,169.545c-36.294,-34.885 -52.665,-74.135 -37.737,-99.992c9.386,-16.256 29.54,-24.445 55.23,-24.809m29.84,2.671c24.46,4.444 51.507,14.388 78.004,29.686c69.306,40.014 108.771,101.604 88.074,137.452c-6.375,11.041 -17.717,18.36 -32.387,22.034c-6.332,1.586 -13.284,2.493 -20.724,2.726" style="fill-opacity:0;stroke:#000;stroke-width:11.2px;"/><ellipse id="electron1" cx="218.985" cy="239.359" rx="15.475" ry="15.058" style="stroke:#fff;stroke-width:0.83px;"/></g><g id="atom1_wing"><path id="electron_path1" d="M73.335,232.995c-8.382,-23.405 -13.294,-51.8 -13.294,-82.396c0,-80.028 33.606,-145 75,-145c18.251,-0 34.989,12.631 47.999,33.615m19.729,173.708c-0.428,1.735 -0.874,3.45 -1.336,5.146m-0.625,2.243c-12.759,44.859 -37.439,75.288 -65.767,75.288c-18.77,-0 -35.939,-13.36 -49.1,-35.426" style="fill-opacity:0;stroke:#000;stroke-width:11.2px;"/><ellipse id="electron11" serif:id="electron1" cx="178.532" cy="31.097" rx="15.475" ry="15.058" style="stroke:#fff;stroke-width:0.83px;"/></g></g><g id="atom_core"><path d="M136.788,163.195c-0,-5.05 4.1,-9.15 9.149,-9.15c5.05,-0 9.15,4.1 9.15,9.15c0,5.049 -4.1,9.149 -9.15,9.149c-5.049,0 -9.149,-4.1 -9.149,-9.149Z" style="stroke:#2b2c3d;stroke-width:1.2px;"/><path d="M138.941,142.051c-0,-5.049 4.1,-9.149 9.149,-9.149c5.05,-0 9.15,4.1 9.15,9.149c-0,5.05 -4.1,9.15 -9.15,9.15c-5.049,-0 -9.149,-4.1 -9.149,-9.15Z" style="stroke:#2b2c3d;stroke-width:1.2px;"/><path d="M118.335,160.427c0,-5.05 4.1,-9.15 9.15,-9.15c5.049,0 9.149,4.1 9.149,9.15c0,5.049 -4.1,9.149 -9.149,9.149c-5.05,0 -9.15,-4.1 -9.15,-9.149Z" style="stroke:#2b2c3d;stroke-width:1.2px;"/><path d="M121.41,141.436c0,-5.049 4.1,-9.149 9.15,-9.149c5.05,-0 9.15,4.1 9.15,9.149c-0,5.05 -4.1,9.15 -9.15,9.15c-5.05,-0 -9.15,-4.1 -9.15,-9.15Z" style="stroke:#2b2c3d;stroke-width:1.2px;"/><circle cx="129.369" cy="152.469" r="9.15" style="stroke:#2b2c3d;stroke-width:1.2px;"/><circle cx="147.744" cy="152.469" r="9.15" style="stroke:#2b2c3d;stroke-width:1.2px;"/><path d="M129.407,161.657c-0,-5.05 4.1,-9.15 9.149,-9.15c5.05,0 9.15,4.1 9.15,9.15c-0,5.05 -4.1,9.149 -9.15,9.149c-5.049,0 -9.149,-4.099 -9.149,-9.149Z" style="stroke:#2b2c3d;stroke-width:1.2px;"/><path d="M129.407,143.282c-0,-5.05 4.1,-9.15 9.149,-9.15c5.05,0 9.15,4.1 9.15,9.15c-0,5.049 -4.1,9.149 -9.15,9.149c-5.049,0 -9.149,-4.1 -9.149,-9.149Z" style="stroke:#2b2c3d;stroke-width:1.2px;"/></g></svg>